# xmcd CD database file
#
# Track frame offsets:
#	151
#	14531
#	28842
#	42737
#	57801
#	72476
#	85851
#	100902
#	114894
#	129547
#	142677
#	157358
#	171906
#	186069
#	199438
#	213381
#	226490
#	239445
#	253890
#	267435
#
# Disc length: 3743 seconds
#
# Revision: 0
# Processed by: cddbd v1.5.2PL0 Copyright (c) Steve Scherf et al.
# Submitted via: CDex 1.51
#
DISCID=2f0e9d14
DTITLE=Blind Willie McTell - King of the Georgia Blues Disc 2
DYEAR=1931
DGENRE=Blues
TTITLE0=Broke Down Engine Blues
TTITLE1=Stomp Down Rider
TTITLE2=Scarey Day Blues
TTITLE3=Rough Alley Blues
TTITLE4=Experience Blues
TTITLE5=Painful Blues
TTITLE6=Low Rider's Blues
TTITLE7=Georgia Rag
TTITLE8=Low Down Blues
TTITLE9=Rollin' Mama Blues
TTITLE10=Lonesome Day Blues
TTITLE11=Mama, Let Me Scoop For You
TTITLE12=Searching The Desert For The Blues
TTITLE13=Warm It Up To Me
TTITLE14=It's Your Time To Worry
TTITLE15=It's A Good Little Thing
TTITLE16=You Was Born To Die
TTITLE17=Dirty Mistreater
TTITLE18=Lord Mercy If You Please
TTITLE19=Don't You See How This World Made A Change
EXTD=YEAR: 1931
EXTT0=
EXTT1=
EXTT2=
EXTT3=
EXTT4=
EXTT5=
EXTT6=
EXTT7=
EXTT8=
EXTT9=
EXTT10=
EXTT11=
EXTT12=
EXTT13=
EXTT14=
EXTT15=
EXTT16=
EXTT17=
EXTT18=
EXTT19=
PLAYORDER=
